<svg id="Layer_1" data-name="Layer 1" xmlns="http://www.w3.org/2000/svg" xmlns:xlink="http://www.w3.org/1999/xlink" viewBox="0 0 1000 1000"><defs><style>.cls-1{fill:none;}.cls-2{clip-path:url(#clip-path);}.cls-3{fill:#ffecd9;}.cls-4{fill:#296d6c;}.cls-5{fill:#ec5e54;}.cls-6{fill:#506891;}.cls-7{fill:#eeb54d;}</style><clipPath id="clip-path"><rect class="cls-1" x="386.57" y="343.67" width="226.85" height="312.67" rx="25.82"/></clipPath></defs><g class="cls-2"><rect class="cls-3" x="387.03" y="343.67" width="226.85" height="312.67"/><path class="cls-3" d="M387.08,343H542.44a0,0,0,0,1,0,0V499.89A155.36,155.36,0,0,1,387.08,655.26h0a0,0,0,0,1,0,0V343A0,0,0,0,1,387.08,343Z"/><path class="cls-4" d="M439.52,403.13a52.44,52.44,0,0,1-52.44,52.42V350.71A52.44,52.44,0,0,1,439.52,403.13Z"/><path class="cls-5" d="M387.21,578.11h84.22a24.83,24.83,0,0,1,24.83,24.83v28.57a24.83,24.83,0,0,1-24.83,24.83H387.21a0,0,0,0,1,0,0V578.11a0,0,0,0,1,0,0Z"/><circle class="cls-6" cx="465.45" cy="577.92" r="78.42"/><rect class="cls-7" x="535.42" y="343.67" width="78.46" height="98.77"/><path class="cls-6" d="M499.7,619.21h0A44.18,44.18,0,0,0,543.87,575V343.59h0a44.17,44.17,0,0,0-44.17,44.16Z"/><path class="cls-6" d="M543.76,445.18c5.69,4.56,12.71,8.32,18.85,11.88,18.23,10.57,34,19.7,34,45.09a8.71,8.71,0,0,0,17.42,0V449.91c0-36-20.79-48.74-39.13-60-17.06-10.47-31.11-19.32-31.11-45.08Z"/></g></svg>