<svg id="Layer_1" data-name="Layer 1" xmlns="http://www.w3.org/2000/svg" xmlns:xlink="http://www.w3.org/1999/xlink" viewBox="0 0 1000 1000"><defs><style>.cls-1{fill:none;}.cls-2{fill:#506891;}.cls-3{fill:#296d6c;}.cls-4{fill:#ec5e54;}.cls-5{fill:#eeb54d;}.cls-6{fill:#48678a;}.cls-7{clip-path:url(#clip-path);}.cls-8{fill:#ffecd9;}</style><clipPath id="clip-path"><rect class="cls-1" x="120.15" y="336.21" width="226.85" height="312.67" rx="25.82"/></clipPath></defs><path class="cls-2" d="M445,456.47a5,5,0,0,0,2.77-2.77,23.09,23.09,0,0,0,1.8-5.26q.69-3,1.11-6.37a48.82,48.82,0,0,0,.41-5.81q.27-6.64.56-11.91t.41-10.11q.14-4.85,0-10.1t-.41-11.91c0-1.11-.1-2.72-.28-4.85s-.42-4.29-.69-6.5-.6-4.39-1-6.51-.65-3.74-.83-4.85q-2.78-11.34,2.35-19T468,341a27.18,27.18,0,0,1,13.16,1q5.94,2.07,9.83,9.28a83.35,83.35,0,0,1,8.3,19.38,150.07,150.07,0,0,1,5.4,39.6,112.42,112.42,0,0,1-7.89,41.53,42.84,42.84,0,0,1-7.2,14,50.09,50.09,0,0,1-12.32,11.35,53.67,53.67,0,0,1-16.89,7.2,59.11,59.11,0,0,1-21.18,1q-10.8-.84-17.45-6.37a35.2,35.2,0,0,1-10.24-15.23q-4.15-11.62-3.74-21.32A78.15,78.15,0,0,1,412.08,421a13.73,13.73,0,0,1,6.09-8q4.71-3,12.74,0a8.92,8.92,0,0,1,5.81,7.61,22.62,22.62,0,0,1-1.38,11.49,39,39,0,0,0-1.66,10.66,21.29,21.29,0,0,0,1.38,8.17,9.57,9.57,0,0,0,4,4.85A7.75,7.75,0,0,0,445,456.47Z"/><path class="cls-3" d="M605.21,373.32c-.3-2.21-.6-4.73-.89-7.54s-.67-5.69-1.11-8.65a20,20,0,0,1-.11-5.54c.22-1.63,1.36-3,3.44-4.21q6.65-3.56,12.42.66a15.44,15.44,0,0,1,3.88,3.33,9.71,9.71,0,0,1,2.1,4.88,115.76,115.76,0,0,1,.56,31.49,61.93,61.93,0,0,1-11.87,29.06,50.63,50.63,0,0,1-5,6.21,41.14,41.14,0,0,1-5.43,4.76,57.49,57.49,0,0,1-6.1,3.89A59.35,59.35,0,0,1,589.9,435a35.37,35.37,0,0,1-17.41,1.89,50.17,50.17,0,0,1-16.52-5,44.73,44.73,0,0,1-17-14.42,66.13,66.13,0,0,1-9.2-20.18Q528,390.85,526.91,385a58.26,58.26,0,0,1-1.1-10.76,66.42,66.42,0,0,1,.44-7.65,31.26,31.26,0,0,1,1.55-7,17.39,17.39,0,0,1,12-11.09q14.64-4,26,6.66a13,13,0,0,1,3.88,5.54,63.17,63.17,0,0,1,1.44,6.43c.29,2.37.67,5.18,1.11,8.43s.74,6.14.89,8.65q.66,12,6,18.63a7.33,7.33,0,0,0,3.33,2.78,12.67,12.67,0,0,0,4.66,1.1,15.69,15.69,0,0,0,4.88-.55,8.56,8.56,0,0,0,4.21-2.66,32.14,32.14,0,0,0,6.43-11.2,60,60,0,0,0,2.67-12.76Z"/><path class="cls-3" d="M601.82,484.93a132.92,132.92,0,0,1-13.2,1.77q-7.43.68-15.86.89c-1.18,0-2.66-.07-4.43-.22l-5.44-.44-5.21-.45a17.45,17.45,0,0,1-3.77-.66,11,11,0,0,1-6.21-5q-2.44-3.88-2-12.54a36.23,36.23,0,0,1,1-6,24.67,24.67,0,0,1,2.22-5.77,19.59,19.59,0,0,1,3.33-4.55,9.84,9.84,0,0,1,4.1-2.55,6.62,6.62,0,0,1,2.44-.44,12.29,12.29,0,0,0,2.44-.22c.15,0,1.4.07,3.77.22s5,.26,7.76.33,5.47.19,8,.34,4.06.22,4.65.22,1.63,0,3.11.11l4.55.22,4.43.22c1.41.08,2.48.11,3.22.11A13.71,13.71,0,0,1,610,455.1a13.24,13.24,0,0,1,3.55,9.87A43.29,43.29,0,0,1,611,478.61Q608.91,483.81,601.82,484.93Z"/><path class="cls-4" d="M692.9,332.13q13.19.47,21.64,5.32A38.28,38.28,0,0,1,728.3,351.1a19.72,19.72,0,0,1,3.48,10.77,27.75,27.75,0,0,1-1.16,10.06A13.38,13.38,0,0,1,727,377a12.6,12.6,0,0,1-4.63,2.55,15,15,0,0,1-4.86.58,11.89,11.89,0,0,1-4-.81,12.23,12.23,0,0,1-6.24-4.86q-2.32-3.48-1.16-8.57a26.3,26.3,0,0,0,.58-3.7,6.05,6.05,0,0,0-1.27-4.86,7.83,7.83,0,0,0-5.56-3,11.46,11.46,0,0,0-6,1.16,5.42,5.42,0,0,0-2.66,2.89,15.18,15.18,0,0,0-1,3.59,14.68,14.68,0,0,0,1,6.94c.84,1.85,1.81,3.94,2.89,6.25a126,126,0,0,0,6.71,11.8,110.56,110.56,0,0,0,8.1,11.11q4.86,6,9.72,11.8a137.62,137.62,0,0,1,9,12,41.75,41.75,0,0,1,6.71,15.51,65,65,0,0,1,1.16,16.43,24.59,24.59,0,0,1-2.32,9.48,34.33,34.33,0,0,1-5.2,8,45.36,45.36,0,0,1-7.18,6.59,50,50,0,0,1-8.44,5.09,24.29,24.29,0,0,1-5.9,2.32,43.8,43.8,0,0,1-8.91,1.5,47.71,47.71,0,0,1-9.95-.35,25.54,25.54,0,0,1-9.49-3.24q-8.57-5.09-12.73-10.64a33.69,33.69,0,0,1-5.78-14.12,16.72,16.72,0,0,1-.23-5.09,13.88,13.88,0,0,1,1.15-5.09c1.39-2.77,3-4.59,5-5.44a17.65,17.65,0,0,1,7.06-1.27,12.35,12.35,0,0,1,4.39,1,6.45,6.45,0,0,1,2.43,2,9.18,9.18,0,0,1,1.28,2.89c.3,1.16.61,2.51.92,4a27.39,27.39,0,0,0,2.55,7.87q2.31,4.39,6.36,5.09a16.93,16.93,0,0,0,6.83,0,8.27,8.27,0,0,0,3.7-2.31,8.75,8.75,0,0,0,2.31-5.1,13.11,13.11,0,0,0-2.19-8.33,45,45,0,0,0-6.6-8.33q-6-6-11.45-11.33T671.38,418a85.09,85.09,0,0,1-14-17.82,54.77,54.77,0,0,1-7.29-21.75q-1.62-12.26,1.62-21.87t14.35-17a39.54,39.54,0,0,1,12.15-5.33A54.82,54.82,0,0,1,692.9,332.13Z"/><path class="cls-5" d="M825.64,401.22q.24,8.14.51,16.17c.16,5.34.08,10.74-.26,16.17q-.51,8.4-1.14,16.8a90.58,90.58,0,0,1-2.93,16.81q-2.55,8.91-9.3,13.49T792.79,483a40.68,40.68,0,0,1-12-3.82,13.81,13.81,0,0,1-7.38-8.65,24.67,24.67,0,0,1-1.27-7.26v-6.75c.16-3.39.38-6.83.63-10.31s.47-6.91.64-10.31q.25-4.34.63-11.84c.26-5,.55-10.14.9-15.41s.67-10.22,1-14.89.68-8,1-10.06q1-8.14-.38-11.84t-6.75-3.18c-2.38.34-4.2.12-5.47-.64s-2.51-1.57-3.69-2.42a8.23,8.23,0,0,1-2.29-4.45,13.76,13.76,0,0,1,0-5.35,12.31,12.31,0,0,1,2.29-5.09,11.22,11.22,0,0,1,4.83-3.7,48,48,0,0,1,7.52-2.29q4.44-1,7.25-1.52,6.88-1,11.46-1.41c3.06-.25,5.81-.42,8.28-.5s4.87-.09,7.25,0,5.18,0,8.41-.13q2.53-.25,5.85-.38c2.21-.09,4.37-.13,6.5-.13s4.11.09,6,.25a25.58,25.58,0,0,1,4.58.77,15.67,15.67,0,0,1,8.15,4.71q3.06,3.43,1.78,10.06a9.69,9.69,0,0,1-3.82,6.23q-3.32,2.69-13.49,3.19-4.59,0-5.35,3.43a20.41,20.41,0,0,0-.51,6.24q0,4.33.13,7.26c.08,1.95.13,3.82.13,5.6v12.86Z"/><path class="cls-4" d="M488.55,562.57v.21q1.09,17-7,29.58t-24.22,19.75q-3.06,1.3-4.7,2.18a5.44,5.44,0,0,0-2.29,2.07,5.91,5.91,0,0,0-.54,3.17,43.6,43.6,0,0,0,.76,5.45q.66,3.49,1.2,6.88a42.2,42.2,0,0,1,.55,6.65,17.25,17.25,0,0,1-.44,4.15,6.68,6.68,0,0,1-2.84,3.49,26.33,26.33,0,0,1-9.38,4.37q-5.24,1.31-13.31.22a44.46,44.46,0,0,1-7.75-2.51,14.51,14.51,0,0,1-5.13-3.71,17.72,17.72,0,0,1-3.17-5.68,41.72,41.72,0,0,1-1.85-8.4q-1.53-10.91-2.62-21.72t-2.18-21.93q-.89-9.16-1.09-20.19t.22-20.18c0-.44,0-1.46.1-3.06s.18-3.53.33-5.78.36-4.7.66-7.31.65-5.17,1.09-7.64a26.13,26.13,0,0,1,3.49-9.17q2.4-3.71,9.38-5.24a54.61,54.61,0,0,1,6.55-1.31l6.55-.87a46.57,46.57,0,0,1,22.8,4.26,61.56,61.56,0,0,1,18.45,13.42,57.24,57.24,0,0,1,11.67,18.11A66,66,0,0,1,488.55,562.57ZM448,592a1,1,0,0,0,.66,1,.85.85,0,0,0,1.09-.11,39.52,39.52,0,0,0,12.11-10.26A28.37,28.37,0,0,0,467.17,568q1.08-10.47-2.84-18.44a42.61,42.61,0,0,0-11.79-14.29c-1.16-1-2.11-1.31-2.83-.88a3.84,3.84,0,0,0-1.53,2.62,6.18,6.18,0,0,0-.44,2.29v2.51q-.44,12.45-.54,24.77T448,592Z"/><path class="cls-5" d="M513.38,562.53q.43-8.71,1.2-18.22T516.43,525q.66-7.21,4.15-11.35a18.8,18.8,0,0,1,8.08-5.79,22.81,22.81,0,0,1,9.71-1.2,26.19,26.19,0,0,1,9.49,2.62,13.93,13.93,0,0,1,3.06,1.86,11.22,11.22,0,0,1,2.73,3.38,17.75,17.75,0,0,1,1.74,5.78,38,38,0,0,1-.11,9.5q-.43,6.33-.87,15t-.76,17.46q-.33,8.84-.44,16.91t-.11,13.31c0,4.22-.08,7.93-.22,11.13s-.25,6.15-.33,8.84-.11,5.31-.11,7.86v8.18a9.14,9.14,0,0,0,1.1,3.17c.43.65,1.67,1,3.71,1.2a16.72,16.72,0,0,0,5-.33q2.4-.54,5.23-1c5.09-.44,8.73,1,10.92,4.14a9.21,9.21,0,0,1,1.2,7.86q-1.22,4.15-6.22,6.33a55.16,55.16,0,0,1-16.7,4.47,109,109,0,0,1-18.66.77,29.5,29.5,0,0,1-9.93-2.07,15.6,15.6,0,0,1-6.22-5.35,19,19,0,0,1-3.16-6c-.52-1.82-1.06-4.11-1.64-6.88q-1.76-9.37-2.73-17.89t-1.42-17q-.44-8.51-.32-17.57T513.38,562.53Z"/><path class="cls-3" d="M604,589.6q1.31-8.86,2.54-17.46a152.06,152.06,0,0,1,3.52-17.3A72.75,72.75,0,0,1,613.47,544a96.2,96.2,0,0,1,4.91-10.33,38.92,38.92,0,0,1,8-10.9,40.3,40.3,0,0,1,11.31-7,24.06,24.06,0,0,1,9.34-2,42.7,42.7,0,0,1,9.51.66,22.63,22.63,0,0,1,7.62,3.11,22.94,22.94,0,0,1,5.41,5,34.07,34.07,0,0,1,3.85,6.4q1.63,3.53,2.95,7.29a58.59,58.59,0,0,1,2.3,8.28q1.14,5.32,2.13,11.39t1.72,12.13q.74,6.07.9,10.66c.22,3.39.46,6.75.74,10.08a88.94,88.94,0,0,1,.24,10.08,14.75,14.75,0,0,1-2.21,6.72q-1.89,3-6.64,2.79A17,17,0,0,1,671,608a4,4,0,0,1-2.38-1.73,7.22,7.22,0,0,1-.9-3.11c-.11-1.26-.16-2.81-.16-4.67,0-1.64,0-3.17-.08-4.59s-.08-2.73-.08-3.94a29,29,0,0,0-.5-3.85c-.22-1-1.2-1.56-2.95-1.56q-4.26-.15-10.41-.32a73.8,73.8,0,0,0-12,.65,7.75,7.75,0,0,0-3.86,1.64,5.8,5.8,0,0,0-1.55,3.61c-.22,1.86-.47,3.63-.74,5.33a43.78,43.78,0,0,1-1.23,5.32,8.32,8.32,0,0,1-6.56,6.23,19.78,19.78,0,0,1-8.93.57A38.09,38.09,0,0,1,610,605a9.39,9.39,0,0,1-5.41-5.49Q603.31,595.82,604,589.6Zm39.5-19.18a61.68,61.68,0,0,1,9.51-.25c3.17.16,6,.25,8.52.25q3.45.17,3.94-1.89a16.87,16.87,0,0,0,.33-4.83,79.68,79.68,0,0,0-1.56-12q-1.23-5.9-2.71-10.65a27.31,27.31,0,0,0-1.64-3.61,3,3,0,0,0-3.27-1.56,6.07,6.07,0,0,0-3.45,2.21,23.33,23.33,0,0,0-1.8,2.63c-.65,1.09-1.37,2.32-2.13,3.69s-1.5,2.84-2.21,4.42a36.89,36.89,0,0,0-1.72,4.51,39.83,39.83,0,0,0-2,6.31q-.82,3.52-1.48,7.46a4.43,4.43,0,0,0,0,2.46C642,570,642.59,570.31,643.46,570.42Z"/><path class="cls-3" d="M663.72,655.6q-5,.95-11.31,1.52t-13.59.76c-1,0-2.29-.07-3.81-.19l-4.65-.38-4.47-.38a15.37,15.37,0,0,1-3.23-.57,9.42,9.42,0,0,1-5.33-4.28q-2.08-3.33-1.71-10.74a30.53,30.53,0,0,1,.86-5.13,20.57,20.57,0,0,1,1.9-5,16.37,16.37,0,0,1,2.85-3.89,8.37,8.37,0,0,1,3.52-2.19,5.63,5.63,0,0,1,2.09-.38,10.4,10.4,0,0,0,2.09-.19c.13,0,1.2.06,3.23.19s4.25.22,6.66.28,4.68.17,6.84.29,3.48.19,4,.19,1.39,0,2.66.1l3.9.19,3.8.19q1.8.09,2.76.09a11.76,11.76,0,0,1,8,3.9,11.33,11.33,0,0,1,3,8.46,37,37,0,0,1-2.18,11.69Q669.8,654.65,663.72,655.6Z"/><path class="cls-5" d="M723.68,587.26a13.17,13.17,0,0,0-1.31-7.64,55.22,55.22,0,0,0-4.15-6.55q-2.61-3.48-4.58-6.33T710,561.4q-1.63-2.5-3.27-4.91T703,551.25a33.45,33.45,0,0,1-2.62-4.26c-1.17-2.1-2.37-4.36-3.6-6.76s-2.37-4.69-3.39-6.88-1.67-3.71-2-4.58q-2.19-8.5,1-13.31t14.73-5.24a76.09,76.09,0,0,1,10.26.22,20.48,20.48,0,0,1,7,1.85,15.77,15.77,0,0,1,4.91,3.82,30.42,30.42,0,0,1,4,6.33q2.63,5.23,5.89,10.48a111.07,111.07,0,0,0,6.33,9.16c1.46,2.33,2.62,3.71,3.5,4.15s2.32-1,4.36-4.15q3.06-6.11,5.78-11.24t6.44-10.8a19,19,0,0,1,5.35-5.67q2.94-2,9.06-1.53c3.34.14,5.63,1.2,6.87,3.16s1.42,4.4.55,7.31a25.23,25.23,0,0,1-2.19,5.13,49.59,49.59,0,0,1-3.05,4.69,121.32,121.32,0,0,0-7.86,12.55q-3.49,6.45-6.55,13.21a22.83,22.83,0,0,0-1.85,6.33,49.2,49.2,0,0,0-.11,7.63q.44,7.42.76,13.43t.66,11.56q.33,5.56.54,11t.44,11.78c0,1.31-.07,3-.22,4.91a22.48,22.48,0,0,1-1.31,6,17.36,17.36,0,0,1-3.27,5.57,10.87,10.87,0,0,1-5.89,3.38,38.29,38.29,0,0,1-7.64,1.42,72.18,72.18,0,0,1-9,.11q-15.93-.43-16.59-16.37,0-2.62-.21-8.08t-.33-11.45q-.12-6-.22-11.35A72,72,0,0,1,723.68,587.26Z"/><path class="cls-6" d="M827.72,616a53.61,53.61,0,0,1-11.35.11,14.56,14.56,0,0,1-7.75-3.16,20.16,20.16,0,0,1-5.35-7.64,81.18,81.18,0,0,1-4.14-13.53,172.13,172.13,0,0,1-1.53-34,217.68,217.68,0,0,1,4.58-35.35,29.18,29.18,0,0,1,2.07-6.11,20.7,20.7,0,0,1,3.82-5.57,17.51,17.51,0,0,1,6.22-4,24.55,24.55,0,0,1,9.06-1.52,26,26,0,0,1,9.49,1.74,12,12,0,0,1,5,3.82,12.91,12.91,0,0,1,2.19,5.24c.36,2,.69,4,1,6.22q.21,3.71.33,11.78t.1,17.35q0,9.29.11,18t.11,14a84.44,84.44,0,0,1-.32,11.35,42.84,42.84,0,0,1-2.19,10.25,22.8,22.8,0,0,1-4.36,7.64A10.55,10.55,0,0,1,827.72,616Zm-5.9,9.61c.58,0,1.53,0,2.84.1a25.48,25.48,0,0,1,4.26.66,20.6,20.6,0,0,1,4.47,1.64,19.18,19.18,0,0,1,3.93,2.61,14.4,14.4,0,0,1,3.27,5,13.7,13.7,0,0,1,1.09,7.21,16.66,16.66,0,0,1-2.07,6.87,17,17,0,0,1-6,5.35,13.12,13.12,0,0,1-5.89,1.85,32,32,0,0,1-7-.11,22.05,22.05,0,0,1-6.55-1.85,15.38,15.38,0,0,1-5-3.6,15.13,15.13,0,0,1-3.39-5.78,13.38,13.38,0,0,1-.43-6.33,14.8,14.8,0,0,1,2.4-5.9,16.85,16.85,0,0,1,4.91-4.69A28.17,28.17,0,0,1,821.82,625.61Z"/><g class="cls-7"><rect class="cls-8" x="120.61" y="336.21" width="226.85" height="312.67"/><path class="cls-8" d="M120.66,335.56H276a0,0,0,0,1,0,0V492.44A155.36,155.36,0,0,1,120.66,647.8h0a0,0,0,0,1,0,0V335.56A0,0,0,0,1,120.66,335.56Z"/><path class="cls-5" d="M173.1,395.67a52.44,52.44,0,0,1-52.44,52.42V343.26A52.43,52.43,0,0,1,173.1,395.67Z"/><path class="cls-2" d="M120.78,570.65H205a24.83,24.83,0,0,1,24.83,24.83v28.57A24.83,24.83,0,0,1,205,648.88H120.78a0,0,0,0,1,0,0V570.65a0,0,0,0,1,0,0Z"/><circle class="cls-4" cx="199.02" cy="570.46" r="78.42"/><rect class="cls-3" x="268.99" y="336.21" width="78.46" height="98.77"/><path class="cls-4" d="M233.28,611.75h0a44.16,44.16,0,0,0,44.16-44.16V336.14h0a44.16,44.16,0,0,0-44.16,44.16Z"/><path class="cls-4" d="M277.33,437.72c5.7,4.57,12.71,8.32,18.85,11.89,18.24,10.57,34,19.7,34,45.09a8.71,8.71,0,1,0,17.41,0V442.45c0-36-20.78-48.74-39.12-60-17.06-10.46-31.12-19.32-31.12-45.08Z"/></g></svg>